<svg width="28" height="28" viewBox="0 0 28 28" fill="none" xmlns="http://www.w3.org/2000/svg">
<path d="M0.818199 12.5587C0.769055 12.3204 0.765281 12.0716 0.807162 11.8312C0.849044 11.5908 0.935479 11.3652 1.0599 11.1714C1.18432 10.9777 1.34345 10.821 1.52519 10.7132C1.70693 10.6055 1.90651 10.5494 2.10875 10.5494H25.312C25.5141 10.5495 25.7135 10.6055 25.8951 10.7132C26.0768 10.8209 26.2358 10.9774 26.3602 11.1709C26.4846 11.3645 26.5711 11.5899 26.6131 11.83C26.655 12.0702 26.6515 12.3189 26.6025 12.5571L24.1931 24.2653C24.0492 24.9647 23.717 25.5857 23.2493 26.0294C22.7817 26.4731 22.2054 26.7142 21.612 26.7143H5.80876C5.21539 26.7142 4.63907 26.4731 4.1714 26.0294C3.70374 25.5857 3.37156 24.9647 3.22766 24.2653L0.818199 12.5587Z" stroke="#B0907F" stroke-linejoin="round"/>
<path d="M9.71892 17.0154V20.2484M17.7017 17.0154V20.2484M5.72754 10.5494L11.0494 0.850525M21.6931 10.5494L16.3712 0.850525" stroke="#B0907F" stroke-linecap="round"/>
</svg>
