<svg width="34" height="35" viewBox="0 0 34 35" fill="none" xmlns="http://www.w3.org/2000/svg">
<path d="M9.86 0.714294H24.14C29.58 0.714294 34 5.13429 34 10.5743V24.8543C34 27.4693 32.9612 29.9773 31.1121 31.8264C29.263 33.6755 26.755 34.7143 24.14 34.7143H9.86C4.42 34.7143 0 30.2943 0 24.8543V10.5743C0 7.95926 1.03882 5.45133 2.88793 3.60222C4.73704 1.75311 7.24497 0.714294 9.86 0.714294ZM9.52 4.11429C7.89688 4.11429 6.34023 4.75908 5.19251 5.9068C4.04478 7.05452 3.4 8.61117 3.4 10.2343V25.1943C3.4 28.5773 6.137 31.3143 9.52 31.3143H24.48C26.1031 31.3143 27.6598 30.6695 28.8075 29.5218C29.9552 28.3741 30.6 26.8174 30.6 25.1943V10.2343C30.6 6.85129 27.863 4.11429 24.48 4.11429H9.52ZM25.925 6.66429C26.4886 6.66429 27.0291 6.88818 27.4276 7.28669C27.8261 7.68521 28.05 8.22571 28.05 8.78929C28.05 9.35288 27.8261 9.89338 27.4276 10.2919C27.0291 10.6904 26.4886 10.9143 25.925 10.9143C25.3614 10.9143 24.8209 10.6904 24.4224 10.2919C24.0239 9.89338 23.8 9.35288 23.8 8.78929C23.8 8.22571 24.0239 7.68521 24.4224 7.28669C24.8209 6.88818 25.3614 6.66429 25.925 6.66429ZM17 9.21429C19.2543 9.21429 21.4163 10.1098 23.0104 11.7039C24.6045 13.2979 25.5 15.46 25.5 17.7143C25.5 19.9686 24.6045 22.1306 23.0104 23.7247C21.4163 25.3188 19.2543 26.2143 17 26.2143C14.7457 26.2143 12.5837 25.3188 10.9896 23.7247C9.39553 22.1306 8.5 19.9686 8.5 17.7143C8.5 15.46 9.39553 13.2979 10.9896 11.7039C12.5837 10.1098 14.7457 9.21429 17 9.21429ZM17 12.6143C15.6474 12.6143 14.3502 13.1516 13.3938 14.108C12.4373 15.0645 11.9 16.3617 11.9 17.7143C11.9 19.0669 12.4373 20.3641 13.3938 21.3205C14.3502 22.277 15.6474 22.8143 17 22.8143C18.3526 22.8143 19.6498 22.277 20.6062 21.3205C21.5627 20.3641 22.1 19.0669 22.1 17.7143C22.1 16.3617 21.5627 15.0645 20.6062 14.108C19.6498 13.1516 18.3526 12.6143 17 12.6143Z" fill="#B0907F"/>
</svg>
