<svg width="34" height="35" viewBox="0 0 34 35" fill="none" xmlns="http://www.w3.org/2000/svg">
<path d="M10.0688 7.76837C9.74135 7.72451 9.40745 7.78516 9.12267 7.9402H9.098C8.4373 8.29684 7.84179 8.74588 7.33436 9.27435C6.91151 9.72339 6.68247 10.1773 6.62257 10.615C6.58733 10.8744 6.612 11.137 6.6948 11.385L6.72652 11.4012C7.20222 12.6867 7.8224 13.9236 8.58001 15.0875C9.55689 16.7224 10.759 18.2344 12.1566 19.586L12.1989 19.6411L12.2659 19.6865L12.3064 19.7303L12.3557 19.7692C13.8299 21.059 15.4771 22.1703 17.2573 23.0762C19.2922 24.0959 20.5273 24.5773 21.2691 24.7783V24.7881C21.4858 24.8497 21.6831 24.8772 21.8822 24.8772C22.5139 24.8343 23.1118 24.598 23.5806 24.2061C24.1533 23.7392 24.6378 23.1897 25.0148 22.5785V22.5672C25.369 21.9512 25.2491 21.3708 24.7382 20.9769C23.7119 20.1518 22.6021 19.419 21.4241 18.7885C20.6348 18.3945 19.8331 18.6328 19.5089 19.0316L18.8165 19.8357C18.4606 20.2345 17.8158 20.1793 17.8158 20.1793L17.7982 20.1891C12.9865 19.0592 11.7021 14.5769 11.7021 14.5769C11.7021 14.5769 11.6422 13.9674 12.0879 13.6561L12.9548 13.0142C13.3706 12.7029 13.6595 11.967 13.2138 11.2407C12.533 10.1558 11.7381 9.13506 10.8405 8.19309C10.6447 7.9714 10.3702 7.82041 10.0653 7.76675L10.0688 7.76837ZM18.1999 5.81983C17.9662 5.81983 17.7422 5.90523 17.577 6.05723C17.4117 6.20924 17.3189 6.4154 17.3189 6.63037C17.3189 6.84534 17.4117 7.0515 17.577 7.20351C17.7422 7.35551 17.9662 7.44091 18.1999 7.44091C20.4269 7.44091 22.2769 8.11041 23.741 9.39431C24.4933 10.0962 25.08 10.9278 25.4641 11.8389C25.8499 12.7516 26.0261 13.7258 25.9803 14.7017C25.9705 14.9167 26.0539 15.1264 26.2122 15.2848C26.3705 15.4432 26.5906 15.5373 26.8243 15.5463C27.0579 15.5553 27.2859 15.4786 27.458 15.333C27.6302 15.1873 27.7324 14.9848 27.7422 14.7698C27.7969 13.5694 27.5803 12.3716 27.1062 11.2521C26.63 10.1273 25.908 9.10433 24.9849 8.24659L24.9672 8.23037C23.1507 6.63361 20.8533 5.81983 18.1999 5.81983Z" fill="#B0907F"/>
<path d="M18.1382 8.48488C17.9046 8.48488 17.6805 8.57028 17.5153 8.72229C17.3501 8.87429 17.2573 9.08045 17.2573 9.29542C17.2573 9.51039 17.3501 9.71655 17.5153 9.86856C17.6805 10.0206 17.9046 10.106 18.1382 10.106H18.1682C19.775 10.2113 20.9449 10.7041 21.7641 11.5131C22.6046 12.3463 23.0397 13.3822 23.0063 14.6628C23.0009 14.8778 23.0886 15.0859 23.25 15.2414C23.4114 15.3969 23.6333 15.487 23.867 15.492C24.1006 15.4969 24.3268 15.4163 24.4958 15.2678C24.6648 15.1193 24.7628 14.9151 24.7682 14.7001C24.8104 13.019 24.222 11.5682 23.0556 10.4107V10.4075C21.8628 9.23058 20.226 8.60809 18.2563 8.4865L18.2263 8.48326L18.1382 8.48488Z" fill="#B0907F"/>
<path d="M18.1047 11.2002C17.9868 11.1906 17.8681 11.203 17.7555 11.2366C17.6429 11.2702 17.5388 11.3243 17.4495 11.3958C17.3602 11.4672 17.2874 11.5544 17.2355 11.6523C17.1836 11.7502 17.1537 11.8567 17.1476 11.9654C17.1414 12.0742 17.1591 12.1829 17.1997 12.2852C17.2402 12.3875 17.3027 12.4813 17.3835 12.5609C17.4643 12.6404 17.5617 12.7042 17.6699 12.7484C17.778 12.7926 17.8948 12.8163 18.0131 12.818C18.7496 12.8537 19.22 13.0579 19.516 13.3319C19.8137 13.6075 20.0357 14.05 20.0763 14.7422C20.0785 14.851 20.1044 14.9583 20.1526 15.0576C20.2009 15.1569 20.2703 15.2463 20.3568 15.3205C20.4434 15.3946 20.5453 15.4519 20.6564 15.489C20.7676 15.5262 20.8857 15.5423 21.0038 15.5366C21.1218 15.5308 21.2375 15.5032 21.3437 15.4555C21.4499 15.4077 21.5447 15.3408 21.6222 15.2586C21.6997 15.1765 21.7585 15.0808 21.795 14.9774C21.8315 14.8739 21.845 14.7647 21.8346 14.6563C21.7782 13.6837 21.447 12.8245 20.7687 12.1923C20.0868 11.5601 19.1583 11.2521 18.1047 11.2002Z" fill="#B0907F"/>
<path fill-rule="evenodd" clip-rule="evenodd" d="M8.48663 1.57909C14.0931 0.426028 19.907 0.426028 25.5134 1.57909L26.1107 1.70067C27.7496 2.03778 29.2548 2.78635 30.4591 3.86323C31.6634 4.9401 32.5197 6.3031 32.9327 7.80079C34.3558 12.9605 34.3558 18.3655 32.9327 23.5252C32.5197 25.0229 31.6634 26.3859 30.4591 27.4628C29.2548 28.5397 27.7496 29.2882 26.1107 29.6254L25.5117 29.7469C22.0003 30.4694 18.3972 30.7416 14.8047 30.5559L10.1305 34.4043C9.95424 34.5495 9.7389 34.6484 9.50691 34.6909C9.27493 34.7334 9.0348 34.7178 8.81161 34.6457C8.58841 34.5737 8.39032 34.4479 8.23801 34.2813C8.08571 34.1148 7.98477 33.9138 7.94574 33.6991L7.17227 29.4487C5.68909 29.024 4.34905 28.2565 3.28023 27.2195C2.2114 26.1824 1.44951 24.9105 1.06736 23.5252C-0.355788 18.3655 -0.355788 12.9605 1.06736 7.80079C1.48038 6.3031 2.33662 4.9401 3.54093 3.86323C4.74523 2.78635 6.25046 2.03778 7.88936 1.70067L8.48663 1.57909ZM24.9373 3.95073C19.7103 2.87564 14.2898 2.87564 9.06277 3.95073L8.46373 4.07393C7.30216 4.31329 6.23542 4.8442 5.38198 5.60768C4.52854 6.37117 3.9218 7.33736 3.62913 8.39897C2.31427 13.1661 2.31427 18.1599 3.62913 22.9271C3.92194 23.9889 4.52895 24.9552 5.38272 25.7187C6.23649 26.4822 7.3036 27.013 8.46549 27.2521L8.62406 27.2845C8.88058 27.3373 9.11416 27.4593 9.29493 27.6348C9.47571 27.8104 9.59547 28.0316 9.6389 28.2701L10.1569 31.12L13.4551 28.4047C13.5868 28.2959 13.741 28.2126 13.9083 28.1597C14.0757 28.1068 14.2529 28.0854 14.4294 28.0967C17.9516 28.3266 21.4913 28.0836 24.9373 27.3753L25.5346 27.2521C26.6965 27.013 27.7636 26.4822 28.6173 25.7187C29.4711 24.9552 30.0781 23.9889 30.3709 22.9271C31.6853 18.1611 31.6853 13.1666 30.3709 8.39897C30.0781 7.33716 29.4711 6.37082 28.6173 5.60732C27.7636 4.84381 26.6965 4.31303 25.5346 4.07393L24.9373 3.95073Z" fill="#B0907F"/>
</svg>
