<svg width="34" height="35" viewBox="0 0 34 35" fill="none" xmlns="http://www.w3.org/2000/svg">
<path d="M29.0452 5.66138C27.4788 4.08706 25.6131 2.83882 23.5568 1.98948C21.5005 1.14013 19.2948 0.706678 17.0683 0.714396C7.7397 0.714396 0.136684 8.27937 0.136684 17.5613C0.136684 20.5363 0.922613 23.4263 2.39196 25.9763L0 34.7143L8.96985 32.3683C11.4472 33.7113 14.2322 34.4253 17.0683 34.4253C26.397 34.4253 34 26.8603 34 17.5783C34 13.0734 32.2402 8.84037 29.0452 5.66138ZM17.0683 31.5693C14.5397 31.5693 12.0623 30.8893 9.89246 29.6143L9.3799 29.3083L4.04925 30.7023L5.46734 25.5343L5.12563 25.0073C3.72077 22.7752 2.97481 20.195 2.97286 17.5613C2.97286 9.84337 9.29447 3.55339 17.0513 3.55339C20.81 3.55339 24.3467 5.01538 26.995 7.66738C28.3062 8.96611 29.3454 10.5109 30.0522 12.2122C30.759 13.9135 31.1194 15.7374 31.1126 17.5783C31.1467 25.2963 24.8251 31.5693 17.0683 31.5693ZM24.791 21.0973C24.3638 20.8933 22.2794 19.8733 21.9035 19.7203C21.5106 19.5843 21.2372 19.5163 20.9467 19.9243C20.6563 20.3493 19.8533 21.3013 19.6141 21.5733C19.3749 21.8623 19.1186 21.8963 18.6915 21.6753C18.2643 21.4713 16.8975 21.0123 15.2915 19.5843C14.0271 18.4623 13.1899 17.0853 12.9337 16.6603C12.6945 16.2353 12.8995 16.0143 13.1216 15.7933C13.3095 15.6063 13.5487 15.3004 13.7538 15.0624C13.9588 14.8244 14.0442 14.6374 14.1809 14.3654C14.3176 14.0764 14.2492 13.8384 14.1467 13.6344C14.0442 13.4304 13.1899 11.3564 12.8482 10.5064C12.5065 9.69037 12.1477 9.79237 11.8915 9.77537H11.0714C10.7809 9.77537 10.3367 9.87737 9.94372 10.3024C9.56784 10.7274 8.47437 11.7474 8.47437 13.8214C8.47437 15.8954 9.99497 17.9013 10.2 18.1733C10.405 18.4623 13.1899 22.7123 17.4271 24.5313C18.4352 24.9733 19.2211 25.2283 19.8362 25.4153C20.8442 25.7383 21.7668 25.6873 22.5015 25.5853C23.3216 25.4663 25.0131 24.5653 25.3548 23.5793C25.7136 22.5933 25.7136 21.7603 25.594 21.5733C25.4744 21.3863 25.2181 21.3013 24.791 21.0973Z" fill="#B0907F"/>
</svg>
