<svg width="30" height="28" viewBox="0 0 30 28" fill="none" xmlns="http://www.w3.org/2000/svg">
<path d="M14.4723 4.36825L14.8958 5.04254L15.3192 4.36825C16.6731 2.21227 18.9713 0.924618 21.6293 0.924515C23.6265 0.927109 25.5496 1.78298 26.9742 3.3182C28.4 4.85475 29.2078 6.9455 29.2102 9.13342C29.21 13.1704 26.8733 17.4572 22.0858 21.8724C19.8959 23.8833 17.531 25.6607 15.0244 27.1797C14.9825 27.2033 14.9385 27.2143 14.8958 27.2143C14.853 27.2143 14.809 27.2033 14.7671 27.1797C12.2605 25.6607 9.89573 23.8834 7.70586 21.8725C2.91814 17.4572 0.581401 13.1702 0.581299 9.13314C0.58373 6.94533 1.3916 4.85469 2.81733 3.3182C4.24188 1.78298 6.16495 0.927109 8.16222 0.924515C10.8202 0.924616 13.1184 2.21226 14.4723 4.36825ZM14.6317 26.2645L14.8958 26.4287L15.1598 26.2645C16.2785 25.5687 19.6139 23.3909 22.6755 20.3589C25.7168 17.3471 28.5941 13.3889 28.5941 9.13288V9.13239C28.5922 7.16442 27.8663 5.27082 26.5652 3.86871C25.263 2.46535 23.4891 1.66827 21.6302 1.66619H21.6296C18.6933 1.66619 16.2122 3.36399 15.1759 6.09145C15.1482 6.16387 15.1035 6.21988 15.0529 6.25644C15.0028 6.29265 14.9481 6.30922 14.8958 6.30922C14.8434 6.30922 14.7887 6.29265 14.7386 6.25644C14.6879 6.21983 14.6432 6.16373 14.6155 6.09119L14.1483 6.26928L14.6157 6.09171C13.5795 3.36409 11.0983 1.66619 8.16191 1.66619L8.16135 1.66619C6.30242 1.66827 4.52848 2.46535 3.22628 3.86871C1.92524 5.27082 1.19932 7.16442 1.19742 9.13239V9.13288C1.19742 13.3889 4.07469 17.3471 7.11599 20.3589C10.1776 23.3909 13.513 25.5687 14.6317 26.2645Z" fill="#B0907F" stroke="#B0907F"/>
</svg>
